<svg version="1" xmlns="http://www.w3.org/2000/svg" width="1109.333" height="1109.333" viewBox="0 0 832.000000 832.000000"><path d="M534.7 6.7c-.4.3-.7 2.8-.7 5.5s-.4 7.9-1 11.6c-.5 3.7-1.1 10.6-1.4 15.4l-.4 8.6 4.7.7c2.5.4 6.6 1.5 9 2.6 3.7 1.6 4.2 2.1 3.1 3.4-1.4 1.7-5.5 2.1-4.5.5.4-.6-.5-.5-1.9.2-1.4.6-2.6 1.6-2.6 2.2 0 2.6 1.3 5.5 2.1 5 .5-.3.9.2.9 1.1 0 1.1-.5 1.5-1.5 1.1-1-.3-1.5.1-1.5 1.2 0 .9-.9 2.3-2 3-1.6 1-2 1-2-.2 0-1.6-4.9-1.9-6.7-.4-1 .8-.8 1.4.7 2.7 1.4 1.1 1.8 2.3 1.4 3.8-.8 3-1.7 2.9-3.4-.2-.8-1.4-2-2.3-2.7-2.1-.8.3-1.3-.2-1.3-1.4 0-1 .7-2 1.6-2.2 1.3-.2 1-1-1.7-3.6-3.4-3.3-4.9-4-4.9-2.2 0 .5.5 1 1.1 1 .8 0 .8.4.1 1.3-.6.7-.9 2.2-.6 3.4.3 1.1.1 2.4-.5 2.7-1 .6-1.6-1.3-1.2-3.7 0-.4-.6-.7-1.4-.7-.8 0-1.5-.4-1.5-.9s-1.2-1.1-2.7-1.3c-1.7-.2-2.8-.9-2.8-1.8 0-.8-1.1-1.7-2.5-1.9-3.5-.4-4-1.8-2.2-5.5 2.7-5.3 4-6.1 6.2-4.1 1.5 1.3 2 1.5 2 .5 0-1.1.3-1.1 1.2-.2 1.3 1.3 4.8 1.6 4.8.4 0-.4-.7-1.8-1.6-3-1.3-1.8-2.3-2.2-6.7-2-2.9.1-5.4.5-5.7.8-.8.8-10.1 3.8-14.4 4.5-3.5.6-4.1.3-7.1-3-1.9-2-3.6-3.1-4-2.6-.4.7-1.2.7-2.4-.1-1.5-.9-2.7-.8-5.6.6-2.1 1-4.3 1.9-4.9 2-.6.1-1.6.5-2.2.8-1.1.7-8.1 1.3-9.9.8-2.2-.6-3.5.1-3.2 1.7.3 2.7-1.6 2.9-3 .3-1.6-3.3-6.6-4.6-16-4.2-6.3.2-8.3 0-8.3-1 0-.9-.3-.9-1 .2-.7 1.2-1.2 1.2-3.4.1-1.4-.8-2.3-1.7-2.1-2.2.6-.9-3.8.2-4.5 1.1-1 1.5-7.3-.2-7.7-2.1-.3-1.1-1.3-2-2.2-2.1-.9 0-2.9-.3-4.6-.5-1.6-.2-5.2-.3-8-.3-2.7-.1-5.2-.6-5.7-1.3-.5-.8-1.7-.2-4 2-1.8 1.7-5.4 4-8 5-4.4 1.7-15.3 9.8-20.4 15.1-1.3 1.3-2.8 2.1-3.3 1.7-.6-.3-1.1.2-1.1 1.3 0 1-2.2 4.6-4.9 8-2.7 3.4-5.2 7.1-5.6 8.2-.8 2.6-3 1.2-3.9-2.6-.6-2.1-.9-2.3-2.6-1.4-1.1.6-2 2.1-2.1 3.3 0 1.2-.8 5.3-1.8 9.2-1.4 5.7-2.1 7.1-3.8 7.3-1.2.2-2.7 1-3.3 1.8-1.6 1.8-4 1.8-4-.1 0-.8-.4-1.5-.9-1.5-1.2 0-2.3-4.8-1.5-6.2.5-.7 1.2-.5 2.1.7 1.2 1.8 1.3 1.8 1.3-.2 0-2.7-1-5.3-2-5.3-.9 0-1.5 1.7-4 11-1 3.6-1.9 5.9-1.9 5.2-.2-2.4-2.2-1.1-3.7 2.3-.8 2-1.9 3.3-2.4 3-.5-.3-1.1.4-1.5 1.5-.3 1.1-1.1 2-1.6 2-1.4 0-20.4 12.6-22 14.7-.8.9-2.6 2.3-4 3.2-3.6 2.3-22.1 22.2-28.8 31.1-7.7 10.2-12.9 18.6-19.4 31.7-8.7 17.2-17.6 46.2-16 52.1.9 3.7-1.6 14.4-4.5 18.5-1.4 2.1-3.8 4.5-5.3 5.2-1.9 1-2.9 2.5-3.4 5.2-.4 2-1.5 4.9-2.6 6.4-1 1.5-1.9 4.2-1.9 6 0 1.8-.6 4-1.4 4.8-1.9 2.2-8.2 27.5-10.1 40.3-3.8 26.3-4.2 52.6-1 71.3.7 4.4 1.6 10.2 2 13 1 7.6 7.1 30.7 10.6 40.4 4.7 12.8 5.8 15.3 13.1 30.2l6.6 13.6 12.1.8c6.6.3 15 .4 18.6 0 6-.7 6.8-.6 8.1 1.3 2.9 4.2 15.3 5.9 28.9 4.2 5-.7 10.5-1.8 12.4-2.6 1.8-.8 4.4-1.4 5.7-1.4 3.4 0 6.4 5.2 6.5 11.5.1 6.5 3.1 18 4.6 18 .7 0 1.8.6 2.5 1.3.9.9.8 1.2-.7 1.2-1.8 0-1.8.1.3 1.6 2.2 1.5 3 4.4 1.2 4.4-1.2 0-1.3 6.3-.1 7.5.5.6 1.2 1.9 1.5 3 .3 1.1.3-.3.1-3-.2-2.8-.1-4.2.1-3.2.7 2.1 2.4 2.3 2.4.1 0-2.3 1.7-.8 2.5 2.3.3 1.6 1.5 4.6 2.5 6.8s2.1 4.7 2.4 5.5c.4.8 1.5 2.8 2.6 4.5 3.1 4.7 3.4 5.6 1.9 6.5-.7.5-1 1.2-.7 1.6.4.3 1.4-.1 2.3-.9.8-.9 2.2-1.4 3-1.1 1.7.7 1.9 2 .5 2.9-.6.3-.8 1.6-.5 2.8.2 1.2.7 5.5 1 9.6.3 4.1 1 8 1.5 8.7.7.8.6 1.3-.5 1.8-1 .3-1.5 1.8-1.5 4.2 0 2.7.5 3.7 2 4.1 1.1.3 2 1.3 2 2.3 0 1.3 1 2 3.8 2.5 2.6.4 4 1.3 4.9 3 .6 1.5.7 2.7.2 3.1-.5.3-.9 1.6-.9 3 0 1.9-.5 2.4-2.5 2.4-1.4 0-2.5.4-2.5 1 0 .5.5 1 1 1 .6 0 1.9.9 3.1 2.1 1.6 1.6 3.8 2.2 9.5 2.6 4.9.4 7.4 1 7.4 1.8 0 1.6 5.5 3.9 7.4 3.2 1.9-.8 3.2 2.9 1.7 4.7-.9 1.1-.2 1.5 3.6 2.1 3.9.6 4.9.4 6.1-1.2 1.1-1.6 1.1-1.8-.5-2.1-2-.3-5-5.9-3.8-7 .4-.4 1-.1 1.2.5.3.8 2.2 1.3 4.4 1.3 2.1 0 3.9.4 3.9.9s1.1 1.2 2.5 1.5c1.4.4 2.5 1.3 2.5 2.1s.7 1.5 1.5 1.5 1.5.6 1.5 1.4c0 .9.8 1.2 2.5.8 2.6-.5 3.2 1.3 1 3.1-.6.5 0 .6 1.4.3 2.6-.5 10.1 2.7 10.1 4.4 0 .6.7 1 1.5 1s1.5.6 1.5 1.2c.1.7 1.2 2.6 2.5 4.3 2 2.3 2.7 2.7 3.4 1.6.6-1 2.2-1.1 6.2-.6 4.7.7 5.1.9 3.5 2-1.7 1.3-1.7 1.4.3 2.4 2.3 1.3 14.1 1.5 14.1.3 0-.8 17-3.2 22.6-3.2 1.7 0 3.7-.7 4.4-1.5.7-.8 2-1.5 2.9-1.5 2-.1 5.1-2.4 5.1-3.8 0-.6.8-1.3 1.8-1.6 2.3-.7 9.1-1.9 11.4-2 1-.1 2.3-.7 2.7-1.5.5-.8 1.6-1.1 2.6-.7 1.8.7 8-1 10.5-2.9.8-.7 3-1.7 4.8-2.5 2-.8 3.2-1.9 3.2-3.1 0-1.1.7-1.9 1.5-1.9s2.3-1.2 3.2-2.7c2.2-3.4 5.2-7.1 7.5-9.1.9-.9 1.5-1.9 1.2-2.4-.3-.4.2-.8 1-.8.9 0 1.6-.7 1.6-1.5s.4-2.3.9-3.3c2.2-4 5.1-10.9 5.1-12 0-.6.8-1.6 1.8-2.1 1.8-1 11.2-13.5 14.2-19 .8-1.5 2.7-4.1 4.3-5.7 1.5-1.6 2.7-3.2 2.7-3.6 0-.5.7-.8 1.5-.8s1.5-.9 1.5-2 .7-2.3 1.5-2.6c.8-.4 1.5-1.3 1.5-2.1 0-1.1.6-1.3 2.3-.8 1.2.3 2.7.7 3.2.7.6.1 1.1 11.9 1.3 32.7.1 17.9.7 40.7 1.3 50.6 1.2 19.1.7 35.2-1.5 45-2.6 11.7-5.7 21.9-7.2 22.9-.7.6-1.5 2.4-1.6 3.9-.1 1.6-.8 3.3-1.5 3.9-.7.6-1.3 1.5-1.3 2 0 .8-5.4 8.5-10 14.1-.8 1-2.5 2.3-3.8 2.8-1.3.5-2 1.3-1.7 1.9.5.9-1.5 1.5-3.8 1.1-.4-.1-1.5.6-2.4 1.4-.8.9-2.7 1.5-4.2 1.3-1.9-.2-2.6.1-2.5 1.3.1 1.2-1 1.9-3.7 2.3-2.7.4-5.1 1.9-8.6 5.4-6.4 6.4-10.6 12-10 13.5.2.7-.2 1.9-.9 2.7-1.9 2.2-.7 5.2 2.9 7.5 1.8 1.1 3.2 2.7 3.2 3.5 0 2.2-6.1 2.5-10.6.4-3.7-1.6-3.9-1.6-8.2.9-7.5 4.4-7.8 5.4-2.9 9.6 2.3 2 4.2 4.2 4.2 5 0 2-5.9.8-10.7-2.2l-3.9-2.5-3.6 2.2c-4.4 2.5-9.5 6.1-20.5 14.1-4.4 3.3-11.3 8.2-15.2 11-3.9 2.7-8.9 6.3-11.2 8l-4 3 46.3.3c32.9.2 46.9-.1 48.4-.9 2.1-1.1 21.5-.7 38 .7l6.1.6-.5-3.1c-.2-1.7 0-3.1.5-3.1 1.5 0 3.3 2.3 3.3 4.2 0 1.7 1.2 1.8 15.5 1.8H599v-2.6c0-1.4.4-2.3 1-1.9.6.3 1 1.5 1 2.6 0 1.9 1.8 1.9 115.5 1.9H832v-9c0-7.4-.3-9-1.5-9-.9 0-7.5-2-14.8-4.4-24.8-8.3-53.9-14.4-82.1-17.2-2.8-.3-5.3-.7-5.7-1-.4-.2-8.2-.8-17.2-1.4-17.9-1-21.5-1.9-28.1-7.2-5.8-4.7-11.2-5.3-21.9-2.6-9.4 2.4-7.9 2.4-24.2-1.3-9.6-2.2-15.3-2.9-19.5-2.3-3.5.5-4.9.2-5.9-1-2.7-3.2-.7-4.3 9.1-5.1 9.2-.6 17.1.3 27.8 3.5 5.1 1.5 9 1.2 15.5-1 10.3-3.5 15.5-2.6 23 4.3 3.2 2.9 11.1 4.5 26 5.2 7.7.3 16.5 1 19.5 1.5 3 .4 8.7 1.3 12.6 1.9 27.8 4 50.4 9.1 71.2 16 8.4 2.8 15.5 5.1 15.7 5.1.3 0 .5-.6.5-1.3 0-.6-4.4-2.6-9.8-4.4-5.3-1.7-13.4-4.5-17.9-6.1-7.2-2.7-21.6-6.5-50.3-13.2-8-1.9-18.9-3.5-30.5-4.6-2.7-.3-5.7-.7-6.5-1-.8-.3-6.7-.8-13-1-13.8-.6-18-1.6-22.3-5.3-7.4-6.5-11.4-7.1-25.2-4.1-4.3.9-6.6.7-16.2-1.5-6.7-1.5-12.4-2.2-14.3-1.9-3.1.7-11-2-11-3.7 0-1.3 3.6-2 9.7-2 3.2.1 7.2 0 8.8-.1 1.7-.1 7.6.5 13.2 1.2 9.3 1.3 10.7 1.2 15.8-.4 5.9-1.8 13.5-1.4 15.8.8.7.6 3.3 2.7 6 4.6 4.5 3.2 5.3 3.4 16.5 4.2 6.4.5 15.1 1.3 19.2 1.9 4.1.6 11.6 1.5 16.5 2 8.9.8 10.7 1.1 23.5 4.4 22.4 5.8 34.1 7.8 35.2 6.1.5-.7.8-.6.8.3 0 .9.8 1.2 2.4.9 1.7-.4 2.3-.1 1.9.8-.5 1.4 3.5 3.6 5 2.7.4-.2.7.1.7.7 0 1.1 2.9 2.4 7.6 3.6 2.4.6 2.5.5 1.3-1.4-.7-1.1-1.7-1.8-2.1-1.6-.4.3-.8.1-.8-.5 0-1.9 3.7-3.2 4.9-1.7.6.7.8 1.5.5 1.9-1.2 1.1.7 4.4 3.2 5.6 2.1.9 2.8.8 4.2-.6 1.6-1.5 1.6-1.6 0-1.1-2.4.9-4.9-1.3-4.6-4.1.3-2.1-.7-2.9-7.5-6.3-5.8-2.9-8.2-3.6-9.2-2.8-.9.8-1.2.6-1.1-.7 0-1-.3-1.8-.9-1.9-2.2-.2-4.5.9-4.5 2.2 0 2.1-2.3 1.7-4.5-.8-1.2-1.5-2-1.8-2.3-1-.5 1.5-3.2 1.6-3.2.2 0-.6.9-2.1 2-3.2 1.8-2 1.9-2.4.5-3.7-1.8-1.9-3.2-.7-1.5 1.4 1.1 1.3.9 1.5-1.1 1.6-1.3 0-3.1.2-4.1.4-1.2.2-1.7-.6-2-3.1-.2-1.9 0-3.4.4-3.4s.8.9.8 1.9c0 1.4.5 1.8 1.9 1.4 1.3-.3 1.7-1.1 1.4-2.4-.6-2.3-5.4-5.9-7.8-5.9-.9 0-1.9-.9-2.2-1.9-.3-1.1-2.4-3.2-4.6-4.7-10.3-6.7-13.3-8.9-15-10.6-2-2-4.7-2.4-4.7-.7 0 .8-.5.7-1.5-.1-1.3-1.1-1.8-1-3 .6-.8 1-1.5 2.4-1.5 3.1 0 1.7-7-.7-7-2.4 0-.8.5-1.1 1-.8.6.3 1 .1 1-.4 0-.6-1-1.1-2.2-1.2-5.7-.3-6.3-.5-6-1.9.2-.8.1-1.2-.3-.8-.9.8-6.4-1.1-9.2-3.2-1.1-.9-4.7-2.2-8-2.9-3.2-.7-8.3-2.6-11.3-4.3-13.2-7-18.4-9-25.1-9.5-5.4-.5-7.3-1.1-9-2.9-4.2-4.4-1.3-6 9.9-5.4 1.7.1 3.2-.3 3.2-.9 0-1.6 4-2.4 5.7-1 .8.7 2.5 1.8 3.7 2.4 1.3.7 2 1.9 1.9 3.2-.1 1.1.6 2.8 1.6 3.7 2.1 1.9 19.1 6.7 23.9 6.8 2 0 3.2.5 3.2 1.4 0 1 .8 1.2 2.9.8 2.4-.5 2.9-.2 3.5 2 .7 2.8 2.6 3.6 2.6 1.1 0-1.7 2.1-2 3.5-.6.6.5 1.9 1.1 3 1.3 1.1.1 2.3.7 2.6 1.1.7 1 5.9-.2 5.9-1.4 0-.5-.5-.9-1.1-.9-.5 0-.8-.4-.5-.9.4-.5-.3-.7-1.4-.4-1.1.3-2 0-2-.6s.6-1.1 1.4-1.1c2.2 0 3.8-6.1 4-15.2.2-5.2.7-8.3 1.4-8.6.7-.2 1.2-.9 1.2-1.6 0-1.4 2.8-3.9 5.4-4.9 1-.4 2-1.6 2.3-2.7.3-1.1 1.2-2 1.9-2 .8 0 1.4-.9 1.4-2s-.7-2-1.5-2-1.5-.9-1.5-2c0-1.5.7-2 2.4-2 1.4 0 2.8.4 3.1 1 .3.5.3 1-.2 1-.4 0-.8 1.4-.9 3-.1 2.3.3 3 1.8 3 1.6 0 1.9-.6 1.7-3.4-.2-1.9 0-3.8.4-4.2 1.1-1.1.8-4.4-.3-4.4-.5 0-1-.9-1-2s.5-2 1-2c.6 0 1 .7 1 1.5s.5 1.5 1 1.5c.6 0 1-.6 1-1.4 0-.8 1.1-1.7 2.5-2 1.4-.4 2.5-1.1 2.5-1.6 0-.6.7-1 1.5-1 1.8 0 2.1-5.5.4-6.5-.6-.4-.8-1.3-.5-2 .2-.7.2-1.6-.1-1.9-1-.9-1.1-10.6-.2-10.6.5 0 1.2 1.2 1.5 2.7 1 3.7 2.7 5.3 5.7 5.3 1.7 0 2.7.7 3.1 2.2.5 1.9.8 2.1 1.6.8.7-1.1.5-1.8-.5-2.6-.9-.7-1.5-2.8-1.5-5.2 0-3.6.2-4 2.1-3.5 1.7.5 2 1.2 1.7 4.6-.1 2.5.2 4.2 1 4.5.6.2 1.2 1 1.2 1.8s.4 1.4 1 1.4c.9 0 .6-5.9-.5-11.4-.3-1.7 2.5-7.1 4.6-8.6.5-.4 2.2-5.1 3.6-10 .3-1.2.6-1.2 1.2-.1.7 1.1 1.1.9 2-.7 1.5-2.9 1.4-5.2-.4-5.2-.8 0-1.5-.5-1.5-1 0-.6.7-1 1.5-1s1.5.4 1.5 1c0 .5 1.4 1 3 1 2.4 0 3.3-.6 4-2.8.6-1.5 1.5-3.6 2-4.7s1.1-3.8 1.2-6c.2-3.2.7-4 2.2-4 1.1 0 2.1-.6 2.4-1.3.2-.6 1.4-1.2 2.7-1.2 1.7 0 2.2.5 1.8 1.8-.2 1 .6 2.7 2.1 4.1l2.6 2.4v-3.6c0-2.7-.4-3.7-1.6-3.7-1.2 0-1.5-.6-1-2.4.4-1.8 0-2.8-1.9-4-2.7-1.8-3.3-4.4-1.1-5.2 1.3-.5 2.5-3.8 6.1-16.7.9-3.2 2.2-6 3-6.4 1.3-.4 1.5-6.3 1.5-39.4V496h-5.2c-2.9 0-7.1-.5-9.3-.9-2.2-.5-6.5-1.2-9.5-1.5-17.9-2-45.2-5.3-58.5-7.1-19.5-2.7-35.8-4.7-43.5-5.2-4.1-.3-8.5-.9-9.8-1.4-2.9-1.1-2.6-3.2 2.3-14.7 1.8-4.4 4.7-12.4 6.5-17.8 1.7-5.4 3.9-10.6 4.9-11.5 1.7-1.6 6.9-1.8 9.1-.4.5.3 1.1-.3 1.3-1.2.4-1.7.5-1.7.6-.1.1 1.9 2.1 2.5 2.1.7 0-.6.6-.4 1.4.4.9.8 2.6 1.2 4 1 2.1-.4 2.7-1.3 3.6-5.7.6-2.9.8-6 .4-6.9-.3-1-.1-2.4.6-3.2.7-.8.9-1.5.6-1.5-.4 0-.2-1 .5-2.1.9-1.7 1.3-1.9 1.9-.8 1.5 2.3 5.3-2 4.6-5.2-.7-3.5.3-6.9 1.9-6.3 2 .8 5.7-4.6 5-7.5-.7-3.5 1-6.3 2-3.3.8 2.6 1.9 2.5 5.6-.8l2.9-2.6-2-3.9c-2.8-5.5-2.6-7.5 1-8.8 1.9-.7 3-1.9 3.1-3.2.1-1.7.2-1.7.6-.3.2 1 .8 1.8 1.3 1.8 1.4 0 1.9-2.8 1.1-5.7-1-4-.4-5.5 3.4-8.3 1.9-1.4 3.5-3.1 3.5-3.8 0-1.7 2-1.5 2 .2 0 .8.7 1.7 1.6 2 .8.3 1.3 1 .9 1.5-.3.5-.1 1.2.5 1.6.6.4 1-.6 1-2.4 0-2.2.5-3.1 1.6-3.1 1.2 0 1.5-.7 1.1-2.6-.5-2.8 2.8-6.8 4.9-6 .7.3 1.5-.2 1.8-1 .9-2.4.7-5.4-.4-5.4-.5 0-1 .7-1 1.6 0 1-.6 1.4-1.4 1.1-.7-.3-1.9 0-2.5.6-.8.8-1.4.8-2.2 0-1.6-1.6.8-5.6 2.9-4.8 1.3.5 1.3.3-.2-1.4-2.1-2.3-1.7-5.7.7-5.3 2.7.5 5.5-3.2 5.2-6.9-.1-1.8-.7-3.5-1.3-3.7-.8-.2-.6-1.2.4-2.8 2.1-3 3.2-3 4 0 .5 2.3 2.9 3.6 6.7 3.6 1.1 0 1.7-.8 1.7-2.4 0-1.4.5-2.8 1-3.1.6-.4.8-1.1.5-1.6-.3-.5.1-.6.9-.3.9.3 1.6.9 1.7 1.3.5 4.2.4 5.1-.8 5.1-.8 0-1.3 1.2-1.3 3.1 0 1.9.4 2.8 1.1 2.3.6-.3 1.5-.1 1.9.5.9 1.6 6 .3 6.7-1.6.3-.8-.8-2.6-2.8-4.4-3-2.5-3.2-3-1.7-3.9 1.3-.8 1.6-2.1 1.3-5.5-.2-2.5.1-4.5.6-4.5s.9-.5.9-1c0-.6-.7-1-1.5-1-1 0-1.5-1-1.5-3.4 0-3.4 1.3-4.6 5-4.6 2 0 3-1.9 3-5.6 0-1.3.4-2.4.9-2.4.4 0 .6-2.1.3-4.8-.4-4.4-.2-4.9 2.3-6.2 1.5-.8 4.2-3.3 5.9-5.5 1.8-2.4 3.8-3.9 4.7-3.7 1.9.3 3.2-4.6 2.3-8.4-.3-1.3.1-3.7 1-5.5 1.4-2.9 1.6-11.4 1.6-76.5v-73.2l-3.2-.7c-3.8-.8-12.1-3.6-12.8-4.5-.8-.9-7.5-3-9.7-3-1.1 0-2.2-.3-2.6-.6-.3-.3-6.3-2.6-13.4-5-34.8-12-45.4-15.4-46.5-14.8-.6.4-.8.3-.5-.3.8-1.3-19.7-8.5-24.6-8.7-2.3-.1-3.9-.6-4.2-1.6-.3-.9-4.3-2.7-9.7-4.3-5.1-1.5-10.1-3.2-11-3.7-1-.6-3.2-1-5-1-2.5 0-2.9-.3-1.8-1 1.2-.8 1-1-1-1-1.5 0-3-.4-3.5-.8-.6-.4-2.8-1.4-5-2.1-2.2-.7-5.5-1.9-7.4-2.8-1.8-.8-4.8-1.3-6.6-1.1-1.9.2-3.1 0-2.9-.4.6-.9-5.6-3.7-11.1-5-2.1-.5-5.3-1.5-7-2.2-1.6-.8-5.2-2.1-8-3.1-2.7-.9-6.3-2.3-8-2.9-7.4-3.1-9.4-3.7-10.4-3.1-.6.3-1.1.3-1.1-.2 0-.4-2.8-1.7-6.3-2.7-3.4-1-6.6-2.2-7.2-2.6-.5-.4-4.8-2-9.5-3.6-4.7-1.5-8.7-3.1-9-3.5-.3-.3-2.3-.9-4.5-1.3s-6-1.6-8.5-2.6-8.1-2.9-12.5-4.3-11.1-3.7-15-5.1c-8.2-3-7-2.8-7.8-1.9zm70.6 26c-.7.2-1.9.2-2.5 0-.7-.3-.2-.5 1.2-.5s1.9.2 1.3.5zm38.4 14.9c-.3.3-1.2.4-1.9.1-.8-.3-.5-.6.6-.6 1.1-.1 1.7.2 1.3.5zM654 49c0 .5-.4 1-1 1-.5 0-1-.5-1-1 0-.6.5-1 1-1 .6 0 1 .4 1 1zM553 61.7c0 1.3-.3 1.3-1.5.3-.8-.7-1.5-1.6-1.5-2.1s.7-.6 1.5-.3c.8.4 1.5 1.3 1.5 2.1zm79 7.3c0 .5-.9 1-2.1 1-1.1 0-1.7-.5-1.4-1 .3-.6 1.3-1 2.1-1s1.4.4 1.4 1zm-56.9 9.1c1 1.2 1.6 2.6 1.2 3.2-.5.8-.8.7-1.1-.1-.2-.7-1-1.2-1.8-1.2s-1.4-.9-1.4-2c0-2.6.8-2.5 3.1.1zm80.2-.4c-.7.2-1.9.2-2.5 0-.7-.3-.2-.5 1.2-.5s1.9.2 1.3.5zM331 84.6c0 1.3-.4 2.4-1 2.4-.5 0-1-1.4-1-3.1 0-1.7.4-2.8 1-2.4.6.3 1 1.7 1 3.1zM582 82c0 .5-.2 1-.4 1-.3 0-.8-.5-1.1-1-.3-.6-.1-1 .4-1 .6 0 1.1.4 1.1 1zm93.5 3c-5.3.7-6 .6-5.2-.7.3-.5 2.7-.6 5.4-.4l4.8.5-5 .6zM597 97.4c0 1.1-1.9 1.5-2.5.6-.3-.5.1-1 .9-1 .9 0 1.6.2 1.6.4zm-13.6 9.7c-.3.5-1 .7-1.5.3-.5-.3-.7-1-.3-1.5.3-.5 1-.7 1.5-.3.5.3.7 1 .3 1.5zM493 119.7c.8.3 2.4.8 3.5 1 1 .2 3 1.1 4.3 1.9 1.3.9 4.6 2.2 7.3 3 2.8.8 5.8 2.4 6.7 3.5.9 1 2.4 1.9 3.4 1.9s1.8.4 1.8.9.9.7 2 .4c1.1-.3 2 0 2 .6s1.2 1.1 2.6 1.1c3.6 0 16.8 6.6 19.9 9.8 1.3 1.5 3.5 3.9 4.9 5.4 1.4 1.6 2.8 2.8 3.1 2.8 1.1 0 17.5 14.1 17.5 15 0 .5.6 1.5 1.3 2.2.7.7 3.4 4 5.9 7.3 2.6 3.3 7 8.6 10 11.7 7.3 7.9 7.4 8.1 8 10.8.3 1.4 1.6 5.2 2.8 8.4 1.1 3.2 2.6 8.4 3.2 11.5.5 3.1 1.4 6 1.8 6.6.5.5 2 5.4 3.4 10.8 1.4 5.3 2.8 10.2 3.1 10.7.3.5.8 2.6 1 4.7 1.7 14 1.2 13 7.3 17.2 11.4 7.7 17.8 16.6 21.2 29.7l1.6 6.4 2.3-3c1.2-1.7 2.1-3.6 1.9-4.3-.3-1.9 1.2-5.7 2.4-5.7.5 0 2.1-.8 3.4-1.9 1.7-1.3 4.2-1.9 8.8-2 8.2-.2 9.6 1.4 9.5 10.4-.1 8.3-1 10.8-4.4 12.4-1.7.8-3.6 2.3-4.3 3.3-1.7 2.4-5.3 2.3-8-.2-2-1.9-4-1.2-2.7 1 .3.5-.3 1-1.4 1-1.1 0-2.2.8-2.5 1.7-.2 1-.4.4-.4-1.2.1-1.7 0-4.1-.2-5.5-.2-2.1-.4-1.9-.9 1-.4 2.3-1.4 3.8-2.8 4.5-2 .8-2.3 1.8-2.3 6 0 6.5-3 18.5-6.5 26.4-1.5 3.4-3 6-3.1 5.8-.8-.7 1.5-10.2 2.5-10.5 1.5-.5 2.8-5.4 5.1-18.4 1.9-11.6 1.8-19.6-.6-29.5-2-8.2-8.4-16.9-16.3-22.1-17.8-11.9-45.8-19.8-71.1-20.3-5.8-.1-10.1-.6-11-1.4-.8-.7-10.9-2.4-22.4-3.9-21.3-2.7-34.7-4.9-40.1-6.6-1.6-.5-9.3-1.2-17-1.5-7.7-.4-17.1-1.1-21-1.6-3.8-.6-8.8-1.2-10.9-1.4-2.2-.3-4.6-.7-5.5-.9-.9-.3-6.3-.7-12.1-1-5.8-.3-9.7-.3-8.7 0 .9.3 1.7 1 1.7 1.5 0 1.3-3.9.1-6.1-1.7-.9-.8-1.9-1-2.5-.5-.9 1-7.8-.2-11.9-2-2-.9-4.8-1.2-26.8-2.7-6.4-.5-12-1.1-12.3-1.5-.4-.3.1-1.3 1-2.2.9-.9 1.9-2.7 2.2-4 .3-1.3 1.2-2.6 2-2.9.7-.3 1.1-1.2.8-2.1-.3-.8-.2-1.5.4-1.5.5 0 1-1.2 1-2.7 0-1.5.8-3.4 1.9-4.3 1.1-.9 2.5-2.6 3.2-3.8.7-1.2 1.6-2 2.2-1.7.5.4.9-1 .9-3 0-2.2.6-3.8 1.5-4.1.8-.4 1.5-1.6 1.5-2.8 0-2.9 1.1-4.2 4.2-4.9 1.5-.4 3-1.7 3.4-2.9.6-1.9.8-2 1.8-.6 1.1 1.5 1.5 1.3 3.9-1.7 2.7-3.4 3.6-7.9 1.7-9-.5-.3-.7-1.9-.3-3.5.3-1.9.1-3-.6-3-.6 0-1.1-.9-1.1-1.9 0-1.1-.5-2.1-1-2.3-.6-.2.2-1.7 1.7-3.5 6.4-7.2 7.3-8.6 7.3-10.4 0-1.2.7-1.9 1.8-1.9 1.3 0 2.3-1.3 3.2-4 .7-2.2 2.7-5.3 4.4-6.9 1.7-1.6 4-4 5.1-5.4 1.2-1.3 3.7-2.7 5.7-3.1 2-.3 5.8-1.8 8.4-3.2 3.2-1.7 5.8-2.4 7.9-2.1 1.6.2 5.3-.1 8-.8 9.7-2.5 17-2.8 22.4-1 2.8.9 5.5 1.4 6 1 .6-.3 5.3-.7 10.6-1 5.2-.2 10.2-.8 11-1.2 1.7-1 12.4-1.4 14.5-.6zm130 1.5c0 .6-.6.5-1.5-.2-.8-.7-1.5-1.4-1.5-1.6 0-.2.7-.1 1.5.2.8.4 1.5 1.1 1.5 1.6zm17.7 43c-.3.8-.6.5-.6-.6-.1-1.1.2-1.7.5-1.3.3.3.4 1.2.1 1.9zM280 169c.8 1.5.7 2.7-.4 4.8-.8 1.5-2 4.3-2.7 6.2-.7 1.9-2.7 5.5-4.5 8-5.2 7.4-15.4 29.2-15.4 33.1 0 6.5-3.7 17.3-7.6 22.1-1.7 2.1-2.1 3.6-1.7 7 .2 2.4-.3 6.8-1.1 9.8-1.2 4.8-1.3 5.7 0 7.1 1.5 1.7 2 8.4.5 7.4-.6-.3-1.3.1-1.8.8-.4.7-3.9 2.3-7.8 3.6-3.8 1.2-7.7 3-8.5 4-.9 1.1-3.5 2.1-6.2 2.4-4 .6-4.8.4-5.3-1.3-1.2-3.8 3.3-8.7 10.6-11.4 8.9-3.2 9.1-3.9 9-24.1l-.1-17.6 4.5-10.6c4.6-11.1 12.7-25.2 19.2-33.9 4.8-6.4 16.5-19.4 17.5-19.4.4 0 1.2.9 1.8 2zm95.6 5.8c-.4.3-1.2 0-1.9-.7-.9-.9-.9-1.4.3-2.1 1.1-.7 1.6-.5 1.8.6.2.9.1 1.8-.2 2.2zm267.1-1.2c1.4 2.9.9 4.4-1.2 4.4-2 0-2.8-1.7-2.1-4.6.8-3.1 1.8-3 3.3.2zM623 229.5c-.1.5-.7.1-1.5-.9-.8-1.1-1.5-3.4-1.5-5 .1-3 .1-3 1.5.9.8 2.2 1.5 4.4 1.5 5zm3.5 1.5c.3.5.1 1-.4 1-.6 0-1.1-.5-1.1-1 0-.6.2-1 .4-1 .3 0 .8.4 1.1 1zm1.7 7.5c.4 1.7.1 2.5-.8 2.5-1.4 0-1.9-3.1-.7-4.3.9-1 1-.9 1.5 1.8zm-210.5 4.1c12.9 6.1 21.5 14.8 24.5 24.6.8 2.6 1.7 3.8 3 3.8s1.8.7 1.8 2.7c0 4.3-1.1 7.3-2.5 7.3-1.5 0-1.6.5-3.6 8.9-1.5 6.9-4.9 15.6-7.9 20.1-2.4 3.8-2.3 3.4 1.6-5.9 1.4-3.5 3.3-10.1 4.1-14.5 3.3-19 2.8-22.9-3.9-30.2-3.7-4-18.6-14.4-20.6-14.4-.5 0-2.1-1.1-3.6-2.5s-3.1-2.5-3.6-2.5-1.2-.5-1.5-1c-1-1.7 4.2-.1 12.2 3.6zM472 261c-2 1.3-4 1.3-4 0 0-.6 1.2-1 2.8-1 2.1 0 2.4.2 1.2 1zm-175.4 2.1c4.3 1.3 5 4.3 1.6 7-1.6 1.2-3.4 1.8-4.7 1.5-1.1-.3-3-.6-4.2-.6-1.4 0-2.3-.6-2.3-1.5 0-.8-.4-1.5-1-1.5-.5 0-1 .7-1 1.6 0 2.3-6.2 7.6-7.5 6.3-1.1-1.1-1.3-8.4-.2-9.5.4-.4 1.6.1 2.7 1.1 1.9 1.8 2 1.7 2-.6.1-5.7 4.6-6.9 14.6-3.8zM476 262c0 .5-.7 1-1.6 1-.8 0-1.2-.5-.9-1 .3-.6 1-1 1.6-1 .5 0 .9.4.9 1zm-1.1 2.2c8.3 2.6 9.9 3.7 11.2 7.6 1.7 5.4 1.9 5.5 4.2 2.5 4.1-5.5 4.2-5.3 1.8 3.3-.6 2.2-1.1 6.9-1.1 10.6 0 3.7-.4 6.9-.9 7.2-1.1.7-2.1-1.7-2.1-5.3 0-1.5-.4-3.1-.9-3.7-.6-.5-1.3-3.2-1.6-5.9-.7-5.3-2.5-8-5.9-9.1-1.1-.4-3.4-1.7-5.1-2.9-1.6-1.2-3.8-2.5-4.8-2.8-1-.4-1.5-1.1-1.2-1.7.8-1.3 2-1.3 6.4.2zm-200.5 8.7c-1.1 5.2-1.5 5.7-2.5 3.2-.6-1.4-.7-3.8-.3-5.3.5-2.3.8-2.7 2-1.7.9.7 1.2 2.1.8 3.8zm7.2 19.3c0 13.2.3 17.5 1.8 22.8 3.1 10.6 6 16.1 12.6 23.8 6.1 7.2 7.6 10.9 2.4 6.1-13-12.1-20.5-34.2-19.1-56.3.5-7.8 1.3-12.6 2.1-12.6.2 0 .2 7.3.2 16.2zm411.9.6c.3.3.5 0 .5-.6 0-1.5 4.2-1.5 10.5.2 4.2 1.1 5.3 1.8 6.9 5 1.7 3.4 1.8 5.1 1 17.4-.6 10-1 12.6-1.5 9.7-.3-2.2-.7-3.4-.8-2.8 0 .7-1.3 1.3-2.8 1.3-3.7 0-13.3-2.6-14.6-3.9-.6-.6-1.1-8.1-1.2-18.3 0-10.8.2-15.6.7-12.9.4 2.4 1 4.6 1.3 4.9zm-221.7 1.1c1.8 3.9 3.2 7.6 3.2 8.4 0 1.3 5.4 14.7 11.2 27.7 4.7 10.5 5.8 13.5 7.9 22 4 16.2 11.8 27.6 19 27.7 8.1.2 24.3 1.3 24.7 1.8.3.3 1.8.5 3.3.5 1.5 0 4 .5 5.5 1 3.1 1.2 4.7.3 2.1-1.1-.9-.6-1.7-1.7-1.7-2.5 0-1.1.7-1.3 2.8-.8 1.5.4 3.2 1.1 3.9 1.6 1.1.9 4.9 1.3 18.8 2.2 2.8.2 8.4.7 12.6 1.1 6.7.6 8.4.4 15.5-2 4.3-1.5 8.8-3.4 9.9-4.1 1.1-.8 2.6-1.4 3.4-1.4 2.5 0 .7 25.6-3 43-1.6 8-4.3 22.1-5.9 31.5-5.7 33.3-11 51.5-15.1 51.5-.5 0-.9-1-.9-2.1 0-1.8-.2-1.9-1.5-.9-.8.7-1.5 2.6-1.5 4.2 0 1.8-.4 2.7-1 2.3-.7-.4-.9.3-.5 2.2.5 2.1.4 2.4-.4 1.3-.6-.8-1.1-2.4-1.2-3.5 0-1.4-.3-1.2-.9.9-.5 1.6-.7 3.3-.5 3.7.8 1.2-1.4 5.9-2.7 5.9-.7 0-2.4 1.2-3.7 2.5-2.5 2.7-7.1 3.4-7.1 1.1 0-.8 1-1.8 2.2-2.2l2.2-.7-2.3-1.8c-1.2-1-2-2.3-1.7-2.8.3-.5-.3-.7-1.4-.4-2.1.6-2.8-1.3-.7-2 .6-.2-.5-.7-2.5-1.1-2.3-.4-3.9-1.4-4.3-2.5-.7-2.3 1.1-7.1 2.7-7.1.9 0 .9-.3.1-1.1s-.4-1.8 1.3-3.6c1.3-1.4 2.4-3.2 2.4-3.9 0-.8.5-1.4 1-1.4.6 0 1-.9 1-1.9 0-1.1.4-2.3 1-2.6.5-.3.9-1.6.8-2.8-.1-2.2.8-5.8 3.6-13.4 1.2-3.4 1.3-5.3.5-9.8-.5-3.1-.7-6.5-.4-7.6.9-2.6-1.1-7.4-4.7-11.9-1.5-1.9-2.8-4-2.8-4.7 0-.7-.9-1.7-2-2.3-1.1-.6-2.3-2.2-2.6-3.6-.7-2.9-3.9-6.5-7.1-8.2-1.1-.7-2.7-2.5-3.5-4.2-.8-1.9-2.5-3.5-4.5-4.2-2.2-.8-3.3-1.9-3.3-3.1 0-1-.9-2.1-2-2.4-1.7-.5-2.5-2-2.2-4.5.1-.7-6.1-3.8-7.6-3.8-.6 0-1.7-.9-2.5-2s-1.6-1.7-2-1.4c-.5.6-5.7-2.4-6.8-3.9-1.1-1.5-8.5.4-9.8 2.5-1 1.6-1 2.3.2 3.6 2.5 2.8 3 6.1 1.3 7.8-.9.9-1.6 3.2-1.6 5.5 0 3.6.2 4 2 3.4 2.5-.8 6 .2 6 1.7 0 .6 1.9 3 4.3 5.4 9.4 9.4 12 13.5 9.8 15.7-1.9 1.9-1.3 6.5 1 8.1 2 1.3 2.1 2 1.4 8.8-1 10.3-3.3 15.3-7.9 16.8-3 1-4.1.9-5.9-.3-1.3-.8-6.1-1.7-11.7-2-5.2-.4-17.1-1.3-26.5-2.1-9.3-.7-17.5-1.1-18.1-.9-.6.2-1.4-.6-1.7-1.8-.7-2.6 1.3-4.6 5.6-5.6 1.6-.3 3.3-1.6 3.9-2.9 1.1-2.4 1.9-2.6 10.9-2.6 3.2 0 3.8-.4 5.2-3.7 1-2.1 1.7-4.1 1.7-4.4 0-.4 1.5-2.6 3.3-5 5-6.6 9.1-16 8.3-19.1-.3-1.4-1.3-2.6-2.2-2.6-.8 0-1.7-.7-2-1.5-.4-.8-1-1.2-1.6-.9-.5.3-2.9-1.5-5.3-4-4.3-4.6-12.7-8.6-18-8.6-1.1 0-4-1.4-6.3-3.1-4-2.9-4.2-3-7.1-1.4-1.7.8-3.4 1.6-3.8 1.8-.5.1-.7.6-.5 1.1.2.5-.3.5-1-.1s-2.5-1-4-.8c-1.5.2-4.4-.3-6.5-1-2.1-.7-5-1.1-6.5-.8-2 .4-3-.1-4.3-2.1-1-1.4-2.6-2.6-3.6-2.6-1.1 0-2.2-.8-2.5-1.8-.4-.9-1.2-3.1-2-4.9-1.6-3.7-1.7-7.3-.3-12.8.5-2.2 1.4-5.7 1.9-7.7.6-2 2.1-4.8 3.4-6.3 1.3-1.4 3.8-6.3 5.6-11 1.9-4.6 3.6-8.2 4-8 .7.5.5-6.9-.3-8.1-.9-1.6.5-6.4 2.2-7.3.9-.5 2.7-3.9 4.1-7.5 1.3-3.6 2.8-6.6 3.2-6.6.4 0 .8-.5.8-1.2 0-.6.6-1.9 1.4-2.7.7-.9 2.3-4.2 3.5-7.4 1.1-3.2 2.7-6.5 3.4-7.3 3.7-4.6 4.9-5.4 8-5.4 3.2 0 3.5.4 6.5 6.9zm212.9 2.7c2.3 2.4 2.5 3.1 2 8.4-.7 6.7-3.6 15.1-5.5 15.8-.9.3-1.2-1.4-1.3-6l-.2-6.3-1.1 7.2c-1.9 12.4-2.9 10.2-4.2-9.8-.6-9.5.1-12.4 2.4-9.6.6.6 1.2 2.5 1.5 4.2.3 2.5.4 2.3.6-1.1.2-6.2 1.7-6.9 5.8-2.8zm-194 7.1c-.2 1.6-.4.5-.4-2.2 0-2.8.2-4 .4-2.8.2 1.3.2 3.5 0 5zm-53 32.5c-.3.7-.5.2-.5-1.2s.2-1.9.5-1.3c.2.7.2 1.9 0 2.5zm-20 49.6c-.2 2.2-1.4 6-2.5 8.5l-2.1 4.7H403v-3.9c0-3.1.7-4.6 3.2-7.2 3.2-3.1 8-5.8 10.7-5.9 1 0 1.2 1 .8 3.8zm-82 1.8c-.3 1.8-.1 2.2.6 1.5.6-.6 1.9-1.1 2.9-1.1 1.7 0 2.2 1.7 3 9 .3 2.2.8 2.5 5.3 2.9 3.8.2 4.5.5 3 1.1-1.7.7-1.7.9-.2.9 2 .1 2.3 2.1.3 2.1-.8 0-1.7.8-2.1 1.7-.8 2.6-5.2 7.3-6.7 7.3-3 0-5.8 3.1-5.8 6.4 0 3.6-1.3 4.6-5.6 4.6-1.8 0-2.4-.5-2.4-2.1 0-1.1-.4-1.8-.8-1.5-.4.2-1.3.1-2-.3-.9-.5-.9-1.3.1-3.4.6-1.5 1.5-2.7 2-2.7.4 0 .7-.5.7-1 0-.6-.9-1-2-1s-2-.2-2-.5c0-1.3 2.4-5.5 3.2-5.5.5 0 .6-.5.3-1.1-1.7-2.6-1.2-16.4.5-15.4.4.3 1-.5 1.3-1.6.3-1.2 1-1.8 1.6-1.4.6.3 1.9.1 2.8-.4 2.5-1.5 2.6-1.4 2 1.5zm18 10.6c-.3.8-.6.5-.6-.6-.1-1.1.2-1.7.5-1.3.3.3.4 1.2.1 1.9zm-31.3 2.2c-.3 1.5-.8 2.5-1.1 2.3-.2-.3-.1-1.7.3-3.1.3-1.5.8-2.5 1.1-2.3.2.3.1 1.7-.3 3.1zm88.4.8c-.6 1.8-2.8 2.1-2.8.4 0-.9.7-1.6 1.6-1.6.9 0 1.4.5 1.2 1.2zm-23.3 16.9c1.4 4.2-3.2 11.3-6.6 10.3-.9-.2-2.1.2-2.8.9-.6.8-2.2 1.2-3.6.9-2-.3-2.5-1-2.5-3.6 0-2 .7-3.7 2-4.6 1.1-.8 2-2 2-2.8 0-1.6 3.5-3.1 7.7-3.1 2.4-.1 3.3.4 3.8 2zm-65.5 4c0 1.1-.6 2.7-1.4 3.4-1.2 1.2-1.5 1.2-2 0-.3-.8 0-1.5.7-1.6.9 0 .9-.2 0-.6-2.1-.8-1.5-3.3.7-3.3 1.4 0 2 .7 2 2.1zm-.9 12c1 1.1 2.3 1.8 2.8 1.4 1.2-.7 1.4 3 .3 5.7-.8 1.9-2.5 1.2-3.5-1.2-.3-.9-.6-.4-.6 1.2-.1 1.8-.6 2.8-1.6 2.8-1.7 0-2-2.6-.4-3.5.6-.4.8-2.2.4-4.6-.8-4.4-.1-4.9 2.6-1.8zm1.6 13.6c.9 1.7.9 3 .3 3.8-1.3 1.6-.1 7.5 1.6 8.2.8.3 1.4 1.3 1.4 2.4 0 1.6-.4 1.7-3 .8-1.6-.6-3.1-1.8-3.1-2.7-.9-13.2-.8-15.2.8-15.2.4 0 1.4 1.2 2 2.7zm10.7 13.5c-.4 3.5-.7 8.2-.6 10.5.2 2.3-.2 4.4-.8 4.8-.5.3-1 2-1 3.6 0 2.3-.6 3.2-2.7 4-1.8.6-2.3 1.3-1.6 2 1.7 1.7.3 5.9-2 5.9-1.8 0-1.9-.4-1.3-5.3.3-2.8.6-6.4.6-7.9 0-2.2.5-2.7 2.7-3 3.1-.3 4-2.6 4.2-10.1.1-2.6.6-4.7 1.1-4.7.6 0 1-1.4 1-3 0-1.7.3-3 .6-3s.2 2.8-.2 6.2zM434 485c0 .5-.6 1-1.2 1-.7 0-.4.6.7 1.2s2.1 1.2 2.3 1.3c.1.1 0 1-.4 1.9-.7 1.8-3.4 2.2-3.4.4 0-.6-.3-.8-.7-.5-.3.4-1.2.2-2-.4-1-.9-.9-1.6 1-3.5 2.3-2.5 3.7-3 3.7-1.4zm98.9 1.5c1.6.8 4 2.7 5.3 4.2 1.3 1.5 3.7 3.5 5.4 4.3 2.9 1.6 3.8 4.3 2 6.7-.4.7-.6 2.2-.3 3.4.3 1.1-.1 3.6-.9 5.4-2.1 5.2-1.8 6.5 1.6 6.5 1.7 0 3 .4 3 1 0 .5.7 1 1.5 1s1.5-.7 1.5-1.6c0-.8.5-1.2 1-.9.6.4.7 1.1.4 1.7-.4.6-.8 2.7-1 4.7-.2 2-1 4-1.7 4.6-.8.5-2 2.3-2.8 4-.8 1.8-2.3 3.1-3.7 3.3-2.5.4-4.6 3.6-3.8 5.9.3.8.1 2.4-.6 3.6-.7 1.2-1.5 4.4-1.8 7-.6 4.4-.4 5 1.6 6.4 2 1.3 2.1 1.7.9 2.9-.7.8-1.8 1.4-2.4 1.4-.7 0-.9 1-.5 2.6.5 2.1.3 2.5-1.1 2.2-1.2-.2-2.3.8-3.4 2.9-.9 1.8-2.4 3.5-3.4 3.9-1 .3-1.6 1.2-1.3 2 1 2.6-1.1 2.3-2.5-.4-.7-1.5-1.4-2.9-1.6-3.1-.3-.5-3.3 2.6-3.3 3.6-.1.4-.9 1.8-2 3.1-1.6 1.9-2.3 2.1-4 1.2-2.1-1.1-2.4-.8-2 2.4.1 1-.3 1.5-.9 1.2-.6-.4-1.9.2-2.9 1.2-1.4 1.4-2.2 1.6-3.5.8-1.3-.8-2-.7-2.7.4-.7 1.2-1.2 1.2-2.9-.4-2-1.8-4.1-1.5-4.1.8 0 1.6-4.8 5.9-8.2 7.4-2.1.9-2.7.8-3.2-.4-.3-.9-1-1.3-1.5-1-.5.4-1.1.1-1.3-.6-.3-.7-.9-.8-1.9-.2-.8.5-3.4.9-5.9 1-4.1.2-4.7-.1-5.8-2.6-.9-2.1-1.8-2.7-3.2-2.3-1.2.3-2 0-2-.6 0-.7.5-.9 1-.6.6.3 1 0 1-.8 0-1-2-1.4-8.2-1.6-9.6-.2-11.3-1-13.3-5.6-1.3-3.2-1.2-3.8.7-7.5 1.2-2.2 2.5-4 3-4 .4 0 .8-1.9.8-4.3 0-4.2.1-4.3 2.9-3.9 1.9.3 3.5-.2 4.7-1.5 1.9-1.9 7.8-3.9 13.9-4.6 1.7-.2 3.7-.7 4.5-1 .8-.3 3.3-1.1 5.5-1.6l4.1-1.1-.1-5.1c0-5.7.9-7 3.1-4.3 1.2 1.7 1.3 1 .9-5.5-.5-6.1-.2-8.1 1.5-11.2l2-3.9-2.5-.6c-2-.5-2.6-1.5-3.1-4.5-.8-4.8-2.4-6.2-5.5-5.1-2.1.8-4.5.9-11.8.3-1-.1-1.2-1-.8-3.1.4-1.6.2-3.2-.3-3.5-.6-.3-1-1-1-1.5 0-.9 12.3-5 15-5 1 0 2.3-.7 3-1.5.9-1.1 2.4-1.3 5.8-.8 2.6.3 4.9 1 5 1.5.5 1.2 3.6 1 5.1-.5 1.1-1 1.4-1 1.8 0 .3.7 1.1 1.3 1.9 1.3.9 0 1.2-.4.9-1-.3-.6.1-.7.9-.4.9.3 6.2-1.7 11.8-4.5 5.6-2.8 10.8-5.1 11.6-5.1.7 0 2.6.7 4.1 1.5zm-90.4 2c1.2.1 1.9.8 1.7 1.9-.2.9.3 1.6 1 1.6s.4.6-.6 1.2c-1.5.8-2.1.8-2.4 0-.2-.7-1.6-1.2-3-1.2-2.6-.1-2.6-.1-.8-1.5 1.7-1.3 1.8-1.5.3-1.5-.9 0-1.7-.5-1.7-1.1 0-.7.7-.8 1.8-.4.9.4 2.6.9 3.7 1zm-89 4.5c.3.5-.1 1-1 1s-1.3-.5-1-1c.3-.6.8-1 1-1 .2 0 .7.4 1 1zm-9.5 6.2c0 .5-.4.8-.9.8s-1.2 1.6-1.5 3.5c-.4 1.9-1.1 3.5-1.6 3.5s-1.2-1.6-1.6-3.5c-.3-1.9-1-3.5-1.5-3.5s-.9-.3-.9-.8c0-.4 1.8-.7 4-.7s4 .3 4 .7zm29.9 10.5c.1 3.3.7 5 2.1 6 1 .7 2 2.8 2.2 4.6.2 2.7.8 3.3 3.1 3.5 2.7.3 6.4 5.2 5 6.6-.3.3.8.9 2.5 1.2 2.8.6 3.2 1 3.2 4 0 2.1.6 3.7 1.7 4.3 1.7.9 1.6 1.1-.1 3-1.7 1.9-7.3 4.4-9.2 4-2.8-.5-4.4.3-4.4 2.2 0 1.1-.5 2.9-1 4-1.4 2.5.4 5.9 3 5.9 1.1 0 2 .4 2 1 0 .5-1.1 1-2.5 1s-2.5.6-2.5 1.2c0 .7-.5 2-1 2.8-1.7 2.5-2.9-.7-2.3-6.2.4-3.9.2-4.8-1-4.8-.9 0-1.9.5-2.2 1-.5.8-1.1.7-2.1-.1-1.6-1.3-1.8-3.7-.5-5.8.8-1.2 1.2-1.2 2.5-.2 1.3 1.1 2 1.1 4.1-.3 3.2-2.1 3.2-2.8-.2-2.5-1.6.2-4.5-.5-6.5-1.5-3-1.5-3.6-2.1-2.9-3.5 1-1.8 1-5.3-.1-6.1-.9-.7.2-6 1.3-6 .5 0 .9.7.9 1.5 0 2.4 4 1.8 4.9-.8 1-2.6.4-9.8-1-11.2-1.1-1.1-2.6.2-3.1 2.9-.2 1.5-1.3 2-4.8 2.3-2.5.2-4.6.9-4.8 1.4-1.1 2.8-8.2-2.7-8.2-6.4 0-2.5 4.5-6.5 8.2-7.2 1.2-.3 3.3-1.8 4.7-3.5 1.8-2.1 3.5-3 5.7-3 3 0 3.1.2 3.3 4.7zm110.1 5.4c0 .9-.6 2.2-1.4 2.8-1.7 1.4-8.6 2.3-8.6 1.1 0-.5-.3-1.6-.7-2.6-.5-1.3-.3-1.6 1-1.1 1.1.4 2.1 0 2.9-1.3.9-1.4 1.6-1.6 2.5-.8 1 .8 1.3.5 1.3-1.3.1-2.3.1-2.3 1.5-.5.8 1.1 1.5 2.7 1.5 3.7zm-140-3.7c0 1.1-1.9 1.5-2.5.6-.3-.5.1-1 .9-1 .9 0 1.6.2 1.6.4zm213.3 3.3c-.7.2-1.9.2-2.5 0-.7-.3-.2-.5 1.2-.5s1.9.2 1.3.5zm-213.6 8.5c-.3.7-.5.2-.5-1.2s.2-1.9.5-1.3c.2.7.2 1.9 0 2.5zm-10.2 4.9c2 3 2.4 4.4 1.6 5.2-2.1 2.1-4.5-.6-4.8-5.1-.1-2.3-.1-4.2.1-4.2s1.6 1.9 3.1 4.1zm24.5 5.2c2.5 2 4.1 5.7 3.5 7.8-.7 2.2-5.5 2.7-5.5.6 0-.8-.9-2.2-2-3.2-1.9-1.7-2.7-5.5-1.4-6.7.7-.8 3.5 0 5.4 1.5zm-21 3.3c0 1.2.9 1.5 3.8 1.4 6.7-.3 7.1-.2 8.1 3.7 1.2 4.4.6 5.6-2.5 4.9-1.4-.4-2.4-.2-2.4.4 0 .5-.9 1-2 1-1.2 0-2-.6-1.9-1.3.5-4.1-.3-5.7-4.2-8-3.4-2-3.8-2.6-2.3-3 3.2-.8 3.4-.7 3.4.9zm209 2.1c0 .5-.4 1.4-.9 2.1-.7 1.1-.9 1.1-1.4-.1-.3-.8-.3-1.8 0-2.1.9-.8 2.3-.7 2.3.1zM410.5 565c-.3.5-1 1-1.6 1-.5 0-.9-.5-.9-1 0-.6.7-1 1.6-1 .8 0 1.2.4.9 1zm7.5 4.5c1 1.2 1 1.5-.4 1.5-.9 0-1.6-.7-1.6-1.5s.2-1.5.4-1.5.9.7 1.6 1.5zm22 1.5c0 .5-.7 1-1.6 1-.8 0-1.2-.5-.9-1 .3-.6 1-1 1.6-1 .5 0 .9.4.9 1zm0 3c0 .5-1.8 1-4 1s-4-.5-4-1c0-.6 1.8-1 4-1s4 .4 4 1zm-81 1.5c1.1 1.3 1 1.4-.4.9-.9-.3-1.6-1-1.6-1.5 0-1.3.6-1.1 2 .6zm66 1.5c.5 0 2.4 1.6 4.3 3.5 2.2 2.3 4.3 3.5 6.1 3.5 2.4 0 2.5.2 1.6 2-1.3 2.4-5 2.7-5 .3 0-1.5-.2-1.5-1.9.1-1.6 1.5-2.2 1.5-4.1.4-1.4-.9-2-2-1.7-3.6.3-1.4-.1-2.2-.9-2.2s-1.4-1-1.4-2.3c0-2.6 1.2-4.5 1.8-2.8.2.6.8 1.1 1.2 1.1zm101.3 1c.3 1.1.2 2-.3 2-.4 0-1-.9-1.3-2-.3-1.1-.2-2 .3-2 .4 0 1 .9 1.3 2zM406 581c0 .5-.5 1-1.1 1-.5 0-.7-.5-.4-1 .3-.6.8-1 1.1-1 .2 0 .4.4.4 1zm26 8c0 .5.9 1 1.9 1 1.1 0 2.3.4 2.6 1 .3.5 0 1-.9 1-.8 0-1.6.5-1.8 1.1-.2.7-1.2.7-3-.2-2.2-1-2.5-1.5-1.7-3 1-2 2.9-2.6 2.9-.9zm-90.2 5c1.1 1.9 1 2-2.3 2-2.8 0-3.5-.4-3.5-2 0-1.4.7-2 2.3-2 1.2 0 2.8.9 3.5 2zM818 605c0 .5-.4 1-1 1-.5 0-1-.5-1-1 0-.6.5-1 1-1 .6 0 1 .4 1 1zm-466 13.5c0 .9-.9 1.5-2.5 1.5-2.6 0-3.4-1.5-1.2-2.3 2.3-1 3.7-.7 3.7.8zm275 35c2 2 4.6 3.5 5.9 3.5 2.7 0 8.1 5.4 9.8 9.9.6 1.7.9 3.1.6 3.1-1 0-4.9-2.4-7.6-4.6-3.1-2.6-4.8-3.1-4.4-1.2.1.7-.4 1.3-1 1.2-.7-.1-2.4-.2-3.8-.3-1.4 0-2.5-.5-2.5-1 0-.4 1.2-.7 2.8-.4 2.7.3 2.7.3.3-.7-1.4-.6-3.1-.8-3.8-.6-.8.3-1.3-.2-1.3-1.3 0-1.5.5-1.8 2.3-1.3 2.2.5 2.2.5.3-1.6-2.3-2.6-4.3-2.8-6.8-.5-1.8 1.6-1.9 1.6-2.5-.5-.3-1.3-1.2-2.1-2.2-2-1.1.2-1.7-.6-1.9-2.4-.4-3.1 1-3.6 7.8-3.1 3.5.3 5.3 1.1 8 3.8zm-32 2.5c0 1.3-.1 1.3-1 0-.5-.8-1-2.2-1-3 0-1.3.1-1.3 1 0 .5.8 1 2.2 1 3zm-4 .6c0 .8-.4 1.2-1 .9-.5-.3-1-1-1-1.6 0-.5.5-.9 1-.9.6 0 1 .7 1 1.6zm5.9 15.1c0 2.5-.1 2.6-.9.8-1.2-2.7-1.2-3.5 0-3.5.6 0 1 1.2.9 2.7zm54.1 2.1c3.8 1.7 5.2 3.2 9 10 1.4 2.5 3.4 5 4.5 5.6 1.1.6 2.4 1.7 2.8 2.3.4.7 1.8 1.3 3.1 1.3 1.7 0 2.5.7 2.8 2.5.6 2.8-.3 3.2-2.2 1-1.4-1.7-8.8-1.4-10 .4-.8 1.5-5.5-2-5.5-4.1 0-1 .5-2.2 1.2-2.9 1.5-1.5-2.5-7.9-5-7.9-1 0-2-.7-2.3-1.5-.4-.8-1.2-1.5-1.9-1.5-1.2 0-2.1-1.9-3.1-6.2-.4-1.9.4-1.8 6.6 1zm-25.5 5.6c4.1 2.3 9.4 10.4 11.5 17.6 1.4 4.8-.4 6.2-2.7 2.1-5.7-10.4-7.1-11.9-13.7-15.1-6.9-3.2-7.4-3.8-5.4-5.8 1.8-1.8 5.9-1.4 10.3 1.2zm-42.5 1.7c0 1-.4 1.9-1 1.9-.5 0-1-1.2-1-2.6 0-1.4.4-2.3 1-1.9.6.3 1 1.5 1 2.6zm13.7 2.1c-.3.8-.6.5-.6-.6-.1-1.1.2-1.7.5-1.3.3.3.4 1.2.1 1.9zm5.3 5.4c0 1.4-.4 2.3-1 1.9-.5-.3-1-1.5-1-2.6 0-1 .5-1.9 1-1.9.6 0 1 1.2 1 2.6zm19.7-.1c2.5 1.7 7.1 10.3 8.3 15.1 1.4 6.1-.6 5.4-4.1-1.2-3.4-6.6-7.1-9.7-14.4-11.9-2-.6-2-.7-.1-2.1 2.6-1.8 7.6-1.8 10.3.1zm-38 8.9c-.4.9-1.6 1.6-2.7 1.6-1.7 0-2-.6-2-4.2v-4.3l2.6 2.7c1.7 1.6 2.4 3.2 2.1 4.2zm21.8 8.6c.7 2.3-.2 4.3-1.6 3.5-1.2-.8-1.2-5.5 0-5.5.5 0 1.2.9 1.6 2zm71 1.8c-.3.3-1.1 0-1.8-.7-.9-1-.8-1.1.6-.5 1 .3 1.5.9 1.2 1.2zm-94.5 4.9c0 .7-.7 1.3-1.5 1.3-1 0-1.5-1-1.5-3.3.1-3 .1-3.1 1.5-1.3.8 1.1 1.5 2.6 1.5 3.3zm59.2-3.3c.9.4 3 .5 4.6.3 5.5-.9 10 3.1 9.2 8.3-.3 2.3-.5 2.3-4.1.1-1.9-1.2-4.2-2.1-5.1-2.1-.9 0-2.3-.6-3-1.3-.8-.6-2.7-2-4.3-2.9-1.6-.9-3.1-2.1-3.3-2.7-.4-1.1 3.3-.9 6 .3zm-7.7 8.6c.3.5.1 1-.4 1-.6 0-1.1-.5-1.1-1 0-.6.2-1 .4-1 .3 0 .8.4 1.1 1zm9.9 0c2.1.8 2.6 1.6 2.6 4.5 0 3.8-.2 4-2.8 2.5-.9-.5-2.9-1.4-4.4-2-2.6-.9-3.7-3.7-2.1-5.3.9-1 3.8-.9 6.7.3zm-50.1 2.2c.4 1.2.4 2.4.1 2.7-.6.7-2.4-2-2.4-3.7 0-2.1 1.7-1.3 2.3 1zm13.7 6.4c0 2.1-.4 3.3-1 2.9-.5-.3-1-1.9-1-3.6 0-1.6.5-2.9 1-2.9.6 0 1 1.6 1 3.6zm-26.4 4.9c-1 2.8-2.6.6-2.5-3.8v-4.2l1.6 3.2c.9 1.7 1.3 3.9.9 4.8zm-14.7 4.4c2.1 2.1 3.8 8.7 2.6 9.9-.4.4-1 0-1.3-.8-.3-.8-2-3-3.9-4.9-1.8-1.8-3.3-3.9-3.3-4.7 0-2 3.7-1.7 5.9.5zm28.1 3.9c0 .7-.4 1-1 .7-.5-.3-1-1.6-1-2.8 0-1.8.2-1.9 1-.7.5.8 1 2.1 1 2.8zm-15 9.4c0 1.5-.4 2.8-.9 2.8-1.2 0-2.1-2.6-2.1-6.3.1-3 .1-3.1 1.5-1.3.8 1.1 1.5 3.2 1.5 4.8zm28-2.1c0 1-.4 1.9-.9 1.9-1.2 0-2.3-2.9-1.5-4.1.8-1.4 2.4 0 2.4 2.2zm146.1 3.1c2.3 2.6 2.4 3.8.3 3.8-.8 0-1.3-.4-1-.8.2-.4 0-1.4-.5-2.2-.8-1.3-1-1.3-1.8 0-1.2 1.8-2.6.7-1.8-1.5.9-2.1 2.6-1.9 4.8.7zm-161.3 7.1c.2 1.5-.1 2.7-.7 2.7s-1.1-.3-1.1-.8c0-.4-.3-1.8-.7-3.1-.4-1.8-.2-2.3.8-1.9.8.2 1.5 1.7 1.7 3.1zm170.3-.4c2.3 1.9 2.3 2 .3 1.5-1.2-.3-2.5-.1-2.8.5-1.1 1.8-3.3 1.3-3.9-.8-.9-3.7 2.6-4.3 6.4-1.2zm12.4 5.5c4.8 3.7 5.5 4.5 4.8 6.3-.6 1.6-2.3 1.8-2.3.2 0-.6-1.9-2.8-4.1-5-2.9-2.8-4.7-3.8-6-3.4-2.1.7-2.7-1.1-.6-1.8 1.8-.6 3.7.3 8.2 3.7zm-172.7-1.1c.3 1.4-.1 1.8-2 1.5-1.2-.2-2.4-1.1-2.6-2.1-.3-1.4.1-1.8 2-1.5 1.2.2 2.4 1.1 2.6 2.1zm168.2 1.6c0 .5-.6 1.1-1.2 1.4-1.8.6-3.9-.3-3.2-1.4.7-1.2 4.4-1.2 4.4 0zm-192 6.2c0 2.4-.4 2.8-2.2 2.5-2.4-.3-3.6-4.1-2.4-7.3 1-2.5 4.6 1.4 4.6 4.8zm28-.9c0 4.4-2.4 2.9-2.8-1.7-.3-3.4-.2-3.7 1.2-2.6.9.8 1.6 2.7 1.6 4.3zm-16 9.4c0 1.3-.4 2.4-1 2.4-.5 0-1-1.4-1-3.1 0-1.7.4-2.8 1-2.4.6.3 1 1.7 1 3.1zm222 4.8c0 .3-.4.8-1 1.1-.5.3-1 .1-1-.4 0-.6.5-1.1 1-1.1.6 0 1 .2 1 .4zm-207.2 5c.4 3.5-1.4 5.8-2.8 3.6-.5-.8-1-2.8-1-4.3 0-4 3.4-3.3 3.8.7zm-31-1.2c1.7 1.7 1.5 5.8-.2 5.8-1.3 0-2.6-2.8-2.6-5.8 0-1.5 1.2-1.6 2.8 0zm-5.1 6c-.3.8-.6.5-.6-.6-.1-1.1.2-1.7.5-1.3.3.3.4 1.2.1 1.9zm-43.7 5.7c0 .9-.4 2.3-1 3.1-.9 1.5-.9 1.6-2.5-3.5-.2-.8-.2-2.2.2-3.1.6-1.5.8-1.5 2 .2.7 1 1.3 2.5 1.3 3.3zm62.8-.1c.2 1.8-.1 3.2-.6 3.2-1.2 0-2.2-2.4-2.2-5.2 0-3.2 2.5-1.5 2.8 2zm-17 8.4c1.4 1.4 1.5 3.8.2 5.8-.9 1.3-1.1 1.3-2 0-1.2-1.8-1.3-7-.2-7 .4 0 1.3.5 2 1.2zm31.6 1.3c.7 2.9 0 4.8-1.5 4-1.2-.8-1.2-6.5 0-6.5.5 0 1.2 1.1 1.5 2.5zm-74.3 1.5c1.9 1.1 2.7 5 1 5-.5 0-1.6-1.1-2.5-2.5-2.4-3.7-2.1-4.4 1.5-2.5zm56.9 9.6c0 1.9-.4 3.4-.9 3.4-1.2 0-2.5-5.6-1.6-7 1.2-1.9 2.5 0 2.5 3.6z"/><path d="M383.7 185.9c-.3 1.4 0 2.1.9 2.1 1.6 0 1.8-.9.5-2.8-.6-1-1-.9-1.4.7zM472.6 231.9c-.3.4-1.9 1.1-3.6 1.5-4 .7-6.7 3.3-5.2 4.8s10.8 2.3 11.6 1c.4-.8 1.6-.8 3.7 0 2.2.7 3.4.7 4.2-.1 1.5-1.5.4-2.3-3.8-2.4-2.6-.1-3.4-.5-3-1.5.9-2.5-2.6-5.5-3.9-3.3zM456 233.6c0 1.5 2.3 4.4 3.4 4.4 1.5 0 .4-3.7-1.4-4.8-1.7-1-2-1-2 .4zM584.2 478c0 1.4.2 1.9.5 1.2.2-.6.2-1.8 0-2.5-.3-.6-.5-.1-.5 1.3zM576.6 495.7c-.9 5.5-.7 8.5.3 7.8.6-.3 1.4.3 2 1.2.9 1.5 1 1.2 1.1-1.7 0-4.8-1.1-11-2-11-.4 0-1 1.7-1.4 3.7zM574.1 501.6c0 1.1.3 1.4.6.6.3-.7.2-1.6-.1-1.9-.3-.4-.6.2-.5 1.3zM332.2 398c0 1.4.2 1.9.5 1.2.2-.6.2-1.8 0-2.5-.3-.6-.5-.1-.5 1.3zM336 402.6c0 .8.5 1.2 1 .9.6-.4.8-1.1.5-1.6-.9-1.4-1.5-1.1-1.5.7zM492 517c0 .5.5 1 1 1 .6 0 1-.5 1-1 0-.6-.4-1-1-1-.5 0-1 .4-1 1zM524.7 519.6c-1.1 1.1-.8 5.2.3 5.9 1.5.9 4.2-2.2 3.8-4.2-.3-1.9-2.9-2.9-4.1-1.7zM535.8 520.2c-.3.7-.3 1.9-.1 2.6.4 1 .9.8 1.9-.5.7-1 1.4-2.1 1.4-2.6 0-1.2-2.8-.8-3.2.5zM536.1 529.6c0 1.1.3 1.4.6.6.3-.7.2-1.6-.1-1.9-.3-.4-.6.2-.5 1.3zM449.5 563c-.3.5-.2 1 .4 1 .5 0 1.3-.5 1.6-1 .3-.6.2-1-.4-1-.5 0-1.3.4-1.6 1zM478.6 570.7c-.4.9-.1 2 .6 2.4 1.2.7 2.5-.9 2.7-3.4.2-1.4-2.7-.7-3.3 1zM447 37.6c0 1.3-5.8 3.7-7 2.9-.5-.3-1-.1-1 .5 0 1.5 4.3 3 5.7 1.8.7-.6 1.4 0 2.1 1.9 1 2.6 1 2.6 1.1.5.1-1.3.5-3.2 1.1-4.2.7-1.3.6-2.1-.5-3-.8-.7-1.5-.8-1.5-.4zM408 39.5c0 .8.4 1.5.8 1.5.5 0 .9-.7.9-1.5s-.4-1.5-.9-1.5c-.4 0-.8.7-.8 1.5zM427 39.9c0 .6.5 1.3 1 1.6.6.3 1-.1 1-.9 0-.9-.4-1.6-1-1.6-.5 0-1 .4-1 .9zM317.1 87.6c0 1.1.3 1.4.6.6.3-.7.2-1.6-.1-1.9-.3-.4-.6.2-.5 1.3zM814.3 302.5c-.9 1-.9 1.6-.2 2 1.4.9 2.2 0 1.7-1.8-.2-1.3-.5-1.3-1.5-.2zM770.6 361.8c-.3.6-.1 1.4.5 1.7 1.5 1 2.5-.3 1.2-1.6-.7-.7-1.3-.7-1.7-.1zM745 413.9c-1.4 2.8-1.3 3.1 1.6 3.1 2 0 2.5-.4 2-1.6-.3-.9-.6-2-.6-2.5 0-1.6-1.9-1-3 1zM302.6 640.5c-.3.9-.6 2.8-.6 4.1 0 1.8-.5 2.4-2.2 2.4-2.8.1-7 3.6-8.5 7.1-.7 1.6-2.5 3-5.1 3.8-2.2.8-6.4 3.4-9.4 5.8-6.9 5.7-12.2 8.5-16.1 8.3-1.8-.1-4.3-.2-5.7-.2-1.4-.1-4.4 1.1-6.7 2.5-5.1 3.2-8.9 4.3-10.6 2.9-.7-.6-4-1.4-7.3-1.7-7.6-.9-10.1.3-17.9 8.5-5.5 5.7-6.1 6-10.5 6-8.5 0-15 5.1-15 11.9 0 6.4-.9 7.8-6.1 9.9-4 1.7-4.9 2.5-4.9 4.6 0 5.8-1.4 7.1-12.2 11.6-5.7 2.4-15.3 6.7-21.5 9.7-6.2 2.9-11.5 5.3-11.8 5.3-.4 0-3.2 1.2-6.3 2.6-3.1 1.4-8.4 3.6-11.7 4.9-3.3 1.2-11.4 5-17.9 8.4-6.6 3.3-12.5 6.1-13.2 6.1-.6 0-1.7.6-2.3 1.4-.6.7-2.2 1.3-3.5 1.3-1.4 0-4.4 1-6.8 2.1-2.4 1.1-7 3.2-10.3 4.7-3.3 1.5-9.1 4.2-13 6-3.8 1.8-9.9 4.6-13.6 6.3-7.4 3.3-20 11.7-27.1 18C0 809.2 0 809.2 0 815.5v6.2l2.8-.4c1.5-.3 4.6-1.3 6.9-2.4 2.4-1 4.7-1.9 5.2-1.9s1.1-.4 1.3-.8c.4-1 19.2-6.7 25.5-7.7 2.4-.4 4.5-1 4.8-1.5.6-1 11.1-2.8 21-3.4 5.4-.4 7.5-.3 6.5.4-.8.5-3.2 1-5.2 1-2.1 0-3.8.4-3.8.8 0 .5-.6.9-1.2 1-.7.1-4 .6-7.3 1-3.3.5-10.2 2.3-15.3 4-5.1 1.8-10 3.2-11 3.2-2.2 0-10.1 3-17.9 6.9-3.4 1.7-6.9 3.1-7.7 3.1-3.2 0-4.6 1.3-4.6 4.1s.2 2.9 4.8 2.9c2.6 0 5.2-.4 5.8-.9 1.6-1.5 16.6-7.1 19-7.1 1.3 0 4.8-1.1 7.9-2.5 7.7-3.4 23.4-5.6 31.5-4.5 2.3.3-8.1 3-11.6 3-3.1 0-6.6 1-30.4 8.3l-11.5 3.6h373l-3-2.5c-1.6-1.5-5.2-4.6-7.9-7-2.7-2.4-5.1-4.4-5.3-4.4-.2 0-1.7-1.3-3.3-3-1.6-1.6-3.4-3-3.9-3s-1.4-1.4-2-3c-.5-1.7-1.6-3-2.3-3-.8 0-1.9-1.4-2.5-3.1-.7-1.7-1.7-2.8-2.2-2.4-.6.3-1.1 0-1.1-.9 0-2.1-2.3-2.5-3.8-.7-1 1.3-1.1 1.3-.7.1.6-1.7-3.1-6.3-5.8-7.3-.9-.4-2-1.5-2.3-2.4-.3-1-.9-2.6-1.4-3.5-.6-1.1-.5-1.8.3-2.1.7-.3.4-.6-.5-.6-2.2-.1-2.4-3.1-.3-3.1 2 0 1.9-1.3-.5-5.2-1.1-1.8-2-5-2-7.1 0-3.1-.3-3.7-2.1-3.7-1.3 0-1.9-.5-1.5-1.3.3-.6.9-2 1.2-3 .7-1.9 2.9-2.3 3.9-.7.3.6 1.6 1 2.8 1.1 2.1 0 2.1.1.2.9-1.3.6-1.5.9-.5.9 1.1.1 1.6 1.5 1.7 5.7.2 4.7.6 5.9 2.9 7.7 1.5 1.1 4.3 3.6 6.3 5.5 5.3 4.9 8.2 6.7 8.9 5.5.4-.5 1.9-1.3 3.5-1.7 2.9-.7 4-4.6 1.2-4.6-.8 0-1.9-1.6-2.6-3.8-.7-2.5-2.1-4.2-4.1-5.2-1.7-.9-3.1-2-3.1-2.5 0-.6-1.1-1.8-2.4-2.8-1.3-1-2.3-2.6-2.3-3.4 0-.9-.7-2.1-1.6-2.8-1.7-1.2-3-7.5-1.6-7.5.5 0 .7-1.5.6-3.3-.2-2.3-1.3-4.2-4.1-6.7-4.4-4-7.3-8.2-7.3-10.6 0-.9-1.2-3.9-2.6-6.8-1.7-3.2-2.8-7.1-3-10.6-.2-4.3-.8-5.8-2.6-7.2-1.3-1-1.9-1.8-1.3-1.8.5 0 0-.7-1.1-1.5-1.2-.8-2.4-2.8-2.8-4.5-.3-1.7-1.9-4.5-3.6-6.1-1.6-1.7-2.9-3.3-2.8-3.7.1-.4-.4-2-1-3.5-.7-1.6-1.2-4.6-1.2-6.7 0-2.7-.7-4.7-2.4-6.4-2.6-2.9-8.4-4.5-9.5-2.8-.5.8-1.2.5-2.4-.8-.9-1.1-1.2-2.2-.6-2.5.5-.4.7-1.1.4-1.6-.4-.5-.1-.9.5-.9s.8-1 .4-2.5c-.4-1.6-.2-2.5.6-2.5.6 0 .9-.4.6-.9-.4-.5.1-3.7 1-7 1.6-6.6 1.6-11.2-.2-11.8-.6-.2-1.4.3-1.8 1.2zm-.8 33.6c-.3 2-.5 1.9-.9-.9-.3-2-.2-2.9.4-2.3.5.5.7 1.9.5 3.2zm4.9 118.5c-.3.3-1.2.4-1.9.1-.8-.3-.5-.6.6-.6 1.1-.1 1.7.2 1.3.5zm23.3 4.7c0 1.8-4.2 5.7-6.2 5.7-2.4 0-2.3-.7.7-4.6 2.4-3.1 5.5-3.8 5.5-1.1zm-87.3.9c-.3.8-.6.5-.6-.6-.1-1.1.2-1.7.5-1.3.3.3.4 1.2.1 1.9zM93.5 798c-.3.5-1.6 1-2.8 1-1.2 0-4 .7-6.2 1.5-4.3 1.5-8.3 2-7.1.7 2.3-2.3 17.4-5.4 16.1-3.2zm25.8 6.5c-.3.9-.8 1.4-1 1.1-.3-.3-.2-.9.2-1.5.9-1.6 1.5-1.3.8.4zM83 813c0 .5-.8 1-1.7 1-1.5 0-1.6-.2-.3-1 1.9-1.2 2-1.2 2 0z"/><path d="M310.6 665.9c-.4.7-.5 1.5-.2 1.8.9.9 1.9-.4 1.4-1.8-.4-1.1-.6-1.1-1.2 0zM789.8 666.7c.7.3 1.6.2 1.9-.1.4-.3-.2-.6-1.3-.5-1.1 0-1.4.3-.6.6zM780.9 670c-.1 1.1-.2 2.6-.3 3.2-.2 1.3 1.2 2.8 2.7 2.8.4 0 .7-1.4.7-3 0-1.7.5-3 1-3 .6 0 1-.5 1-1 0-.6-1.1-1-2.5-1-1.8 0-2.5.6-2.6 2zM794.4 688.7c.3.8.6 1.7.6 1.9 0 1 1.8.3 2.3-1 .3-.8-.2-1.6-1.4-1.9-1.5-.4-1.9-.2-1.5 1zM396.7 702.6c-.6.6 1.6 3.4 2.7 3.4.3 0 .6-.9.6-2 0-1.9-2-2.7-3.3-1.4zM444.5 711.8c-2.2.2-4.2.7-4.5 1.1-.3.5-1.9 1.6-3.7 2.5-2.7 1.3-4.3 1.4-10.1.6-3.7-.5-8.5-1.6-10.5-2.5-5.1-2.1-7.7-2-7.7.5 0 1.1-.4 2-1 2-.5 0-.9 1.1-.8 2.5.1 1.4.6 2.5 1 2.5s.8.6.8 1.4c0 .7.6 1.9 1.4 2.5.8.7 1.7 2.4 2.1 3.9.9 3.5 5.5 7.8 9.4 8.7 1.7.4 3.1 1.1 3.1 1.6 0 1.6 9.7 1 12.9-.9 1.7-.9 3.1-2 3.1-2.5 0-1.3 2.8-.7 3.4.8.4 1-.1 1.5-1.4 1.5-1.1 0-2 .4-2 1 0 .5.6 1 1.4 1 .8 0 1.8-.5 2.1-1 .3-.6 1.5-1 2.6-1 1 0 1.9-.5 1.9-1.1 0-.7.8-1.8 1.8-2.5 1.5-1.2 1.5-1.3-1-1.4-5.1 0-4.2-3.1 1.5-4.5 1.5-.4 2.7-1.4 2.7-2.1 0-.8.7-1.7 1.5-2 1.9-.8 2-4 .1-4.7-.8-.3-1.6-1.8-1.8-3.3-.4-3.4-3.3-5.1-8.3-4.6zM744 734.1c0 .5.5.7 1 .4.6-.3 1-.8 1-1.1 0-.2-.4-.4-1-.4-.5 0-1 .5-1 1.1zM400 756.3c-.3.3-.4 3.9-.2 8.1.3 5.7.7 7.6 1.8 7.6.7 0 1.9.9 2.6 2 .7 1.1 1.7 2 2.3 2 .6 0 2.7.9 4.8 2 2.4 1.3 5.6 2 9.1 2 3 0 6.7.5 8.2 1 1.5.6 3 .7 3.3.2.8-1.1 9.1-3.2 13-3.2 1.7 0 3.1-.5 3.1-1 0-.6-1.5-1-3.4-1-5.2 0-5.3-1.7-.1-2.2 2.5-.2 4.5 0 4.5.4 0 1.3 4 .9 4.1-.5.5-5.1.9-7.1 1.9-8.1 1.6-1.6 1.2-3.4-1.1-4.6-2.8-1.6-13.6-2.3-14.4-1-1.2 2-7.2 1.1-9.6-1.5-2.7-2.7-5.9-3.3-5.9-1 0 1.1-1.2 1.5-4.8 1.5-2.6 0-5.3-.5-5.9-1.1-1.1-1.1-12.4-2.5-13.3-1.6z"/><path d="M435 757c2 1.3 5 1.3 5 0 0-.6-1.5-1-3.2-1-2.5 0-2.9.3-1.8 1zM793.6 772.5c-.8 2.2-.3 2.8 1.9 2.3 1.4-.3 1.4-.5.2-2.2-1.3-1.8-1.4-1.8-2.1-.1zM450.8 776.7c.7.3 1.6.2 1.9-.1.4-.3-.2-.6-1.3-.5-1.1 0-1.4.3-.6.6zM448 781c0 .5.5 1 1 1 .6 0 1-.5 1-1 0-.6-.4-1-1-1-.5 0-1 .4-1 1zM822.6 788.9c-.4.5.8 1.1 2.6 1.3 2.2.2 3.6 1 4.4 2.6 1.7 3.4 2.1 3.5 2.1.2 0-2.5-.5-3.2-2.6-3.6-1.4-.3-3.3-.8-4.3-1-.9-.3-1.9 0-2.2.5z"/></svg>